<mxfile host="app.diagrams.net" agent="Mozilla/5.0 (Windows NT 10.0; Win64; x64) AppleWebKit/537.36 (KHTML, like Gecko) Chrome/131.0.0.0 Safari/537.36" version="26.0.1">
  <diagram name="Subsystem and Reporting Platform" id="1WLmGizrtCrY2r6MNZB-">
    <mxGraphModel dx="2048" dy="725" grid="1" gridSize="10" guides="1" tooltips="1" connect="1" arrows="1" fold="1" page="1" pageScale="1" pageWidth="827" pageHeight="1169" math="0" shadow="0">
      <root>
        <mxCell id="0" />
        <mxCell id="1" parent="0" />
        <mxCell id="KvDqcfV2zsYVxwI3j1Nx-67" value="Sales Order Processing System" style="rounded=1;whiteSpace=wrap;html=1;fillColor=#d5e8d4;strokeColor=#82b366;" vertex="1" parent="1">
          <mxGeometry x="100" y="100" width="250" height="120" as="geometry" />
        </mxCell>
        <mxCell id="KvDqcfV2zsYVxwI3j1Nx-68" value="OrderReceived" style="shape=ellipse;whiteSpace=wrap;html=1;fillColor=#fff2cc;strokeColor=#d6b656;" vertex="1" parent="1">
          <mxGeometry x="400" y="120" width="120" height="80" as="geometry" />
        </mxCell>
        <mxCell id="KvDqcfV2zsYVxwI3j1Nx-69" value="OrderValidated" style="shape=ellipse;whiteSpace=wrap;html=1;fillColor=#fff2cc;strokeColor=#d6b656;" vertex="1" parent="1">
          <mxGeometry x="650" y="120" width="120" height="80" as="geometry" />
        </mxCell>
        <mxCell id="KvDqcfV2zsYVxwI3j1Nx-70" value="" style="edgeStyle=orthogonalEdgeStyle;rounded=1;strokeColor=#82b366;" edge="1" parent="1" source="KvDqcfV2zsYVxwI3j1Nx-67" target="KvDqcfV2zsYVxwI3j1Nx-68">
          <mxGeometry relative="1" as="geometry" />
        </mxCell>
        <mxCell id="KvDqcfV2zsYVxwI3j1Nx-71" value="" style="edgeStyle=orthogonalEdgeStyle;rounded=1;strokeColor=#82b366;" edge="1" parent="1" source="KvDqcfV2zsYVxwI3j1Nx-68" target="KvDqcfV2zsYVxwI3j1Nx-69">
          <mxGeometry relative="1" as="geometry" />
        </mxCell>
        <mxCell id="KvDqcfV2zsYVxwI3j1Nx-72" value="Production System" style="rounded=1;whiteSpace=wrap;html=1;fillColor=#d5e8d4;strokeColor=#82b366;" vertex="1" parent="1">
          <mxGeometry x="100" y="300" width="250" height="120" as="geometry" />
        </mxCell>
        <mxCell id="KvDqcfV2zsYVxwI3j1Nx-73" value="OrderValidated" style="shape=ellipse;whiteSpace=wrap;html=1;fillColor=#fff2cc;strokeColor=#d6b656;" vertex="1" parent="1">
          <mxGeometry x="400" y="320" width="120" height="80" as="geometry" />
        </mxCell>
        <mxCell id="KvDqcfV2zsYVxwI3j1Nx-74" value="StockChecked" style="shape=ellipse;whiteSpace=wrap;html=1;fillColor=#fff2cc;strokeColor=#d6b656;" vertex="1" parent="1">
          <mxGeometry x="650" y="320" width="120" height="80" as="geometry" />
        </mxCell>
        <mxCell id="KvDqcfV2zsYVxwI3j1Nx-75" value="ProductionCompleted" style="shape=ellipse;whiteSpace=wrap;html=1;fillColor=#fff2cc;strokeColor=#d6b656;" vertex="1" parent="1">
          <mxGeometry x="900" y="320" width="140" height="80" as="geometry" />
        </mxCell>
        <mxCell id="KvDqcfV2zsYVxwI3j1Nx-76" value="" style="edgeStyle=orthogonalEdgeStyle;rounded=1;strokeColor=#82b366;" edge="1" parent="1" source="KvDqcfV2zsYVxwI3j1Nx-73" target="KvDqcfV2zsYVxwI3j1Nx-74">
          <mxGeometry relative="1" as="geometry" />
        </mxCell>
        <mxCell id="KvDqcfV2zsYVxwI3j1Nx-77" value="" style="edgeStyle=orthogonalEdgeStyle;rounded=1;strokeColor=#82b366;" edge="1" parent="1" source="KvDqcfV2zsYVxwI3j1Nx-74" target="KvDqcfV2zsYVxwI3j1Nx-75">
          <mxGeometry relative="1" as="geometry" />
        </mxCell>
        <mxCell id="KvDqcfV2zsYVxwI3j1Nx-78" value="Delivery System" style="rounded=1;whiteSpace=wrap;html=1;fillColor=#d5e8d4;strokeColor=#82b366;" vertex="1" parent="1">
          <mxGeometry x="100" y="500" width="250" height="120" as="geometry" />
        </mxCell>
        <mxCell id="KvDqcfV2zsYVxwI3j1Nx-79" value="ProductionCompleted" style="shape=ellipse;whiteSpace=wrap;html=1;fillColor=#fff2cc;strokeColor=#d6b656;" vertex="1" parent="1">
          <mxGeometry x="400" y="520" width="140" height="80" as="geometry" />
        </mxCell>
        <mxCell id="KvDqcfV2zsYVxwI3j1Nx-80" value="DeliveryCompleted" style="shape=ellipse;whiteSpace=wrap;html=1;fillColor=#fff2cc;strokeColor=#d6b656;" vertex="1" parent="1">
          <mxGeometry x="650" y="520" width="120" height="80" as="geometry" />
        </mxCell>
        <mxCell id="KvDqcfV2zsYVxwI3j1Nx-81" value="" style="edgeStyle=orthogonalEdgeStyle;rounded=1;strokeColor=#82b366;" edge="1" parent="1" source="KvDqcfV2zsYVxwI3j1Nx-79" target="KvDqcfV2zsYVxwI3j1Nx-80">
          <mxGeometry relative="1" as="geometry" />
        </mxCell>
        <mxCell id="KvDqcfV2zsYVxwI3j1Nx-82" value="Inventory Control System" style="rounded=1;whiteSpace=wrap;html=1;fillColor=#d5e8d4;strokeColor=#82b366;" vertex="1" parent="1">
          <mxGeometry x="100" y="700" width="250" height="120" as="geometry" />
        </mxCell>
        <mxCell id="KvDqcfV2zsYVxwI3j1Nx-83" value="StockUpdated" style="shape=ellipse;whiteSpace=wrap;html=1;fillColor=#fff2cc;strokeColor=#d6b656;" vertex="1" parent="1">
          <mxGeometry x="400" y="720" width="120" height="80" as="geometry" />
        </mxCell>
        <mxCell id="KvDqcfV2zsYVxwI3j1Nx-84" value="StockThresholdAlert" style="shape=ellipse;whiteSpace=wrap;html=1;fillColor=#fff2cc;strokeColor=#d6b656;" vertex="1" parent="1">
          <mxGeometry x="650" y="720" width="120" height="80" as="geometry" />
        </mxCell>
        <mxCell id="KvDqcfV2zsYVxwI3j1Nx-85" value="" style="edgeStyle=orthogonalEdgeStyle;rounded=1;strokeColor=#82b366;" edge="1" parent="1" source="KvDqcfV2zsYVxwI3j1Nx-83" target="KvDqcfV2zsYVxwI3j1Nx-84">
          <mxGeometry relative="1" as="geometry" />
        </mxCell>
        <mxCell id="KvDqcfV2zsYVxwI3j1Nx-86" value="Purchase Order Processing System" style="rounded=1;whiteSpace=wrap;html=1;fillColor=#d5e8d4;strokeColor=#82b366;" vertex="1" parent="1">
          <mxGeometry x="100" y="900" width="250" height="120" as="geometry" />
        </mxCell>
        <mxCell id="KvDqcfV2zsYVxwI3j1Nx-87" value="StockThresholdAlert" style="shape=ellipse;whiteSpace=wrap;html=1;fillColor=#fff2cc;strokeColor=#d6b656;" vertex="1" parent="1">
          <mxGeometry x="400" y="920" width="140" height="80" as="geometry" />
        </mxCell>
        <mxCell id="KvDqcfV2zsYVxwI3j1Nx-88" value="PurchaseOrderCompleted" style="shape=ellipse;whiteSpace=wrap;html=1;fillColor=#fff2cc;strokeColor=#d6b656;" vertex="1" parent="1">
          <mxGeometry x="650" y="920" width="180" height="80" as="geometry" />
        </mxCell>
        <mxCell id="KvDqcfV2zsYVxwI3j1Nx-89" value="" style="edgeStyle=orthogonalEdgeStyle;rounded=1;strokeColor=#82b366;" edge="1" parent="1" source="KvDqcfV2zsYVxwI3j1Nx-87" target="KvDqcfV2zsYVxwI3j1Nx-88">
          <mxGeometry relative="1" as="geometry" />
        </mxCell>
        <mxCell id="KvDqcfV2zsYVxwI3j1Nx-90" value="Reporting Platform" style="rounded=1;whiteSpace=wrap;html=1;fillColor=#f8cecc;strokeColor=#b85450;" vertex="1" parent="1">
          <mxGeometry x="-220" y="1100" width="300" height="120" as="geometry" />
        </mxCell>
        <mxCell id="KvDqcfV2zsYVxwI3j1Nx-91" value="" style="edgeStyle=orthogonalEdgeStyle;rounded=1;strokeColor=#6c8ebf;fontSize=12;" edge="1" parent="1" source="KvDqcfV2zsYVxwI3j1Nx-67" target="KvDqcfV2zsYVxwI3j1Nx-90">
          <mxGeometry x="-0.8378" y="-20" relative="1" as="geometry">
            <mxPoint as="offset" />
          </mxGeometry>
        </mxCell>
        <mxCell id="KvDqcfV2zsYVxwI3j1Nx-92" value="" style="edgeStyle=orthogonalEdgeStyle;rounded=1;strokeColor=#6c8ebf;fontSize=12;" edge="1" parent="1" source="KvDqcfV2zsYVxwI3j1Nx-72" target="KvDqcfV2zsYVxwI3j1Nx-90">
          <mxGeometry relative="1" as="geometry">
            <mxPoint as="offset" />
          </mxGeometry>
        </mxCell>
        <mxCell id="KvDqcfV2zsYVxwI3j1Nx-93" value="" style="edgeStyle=orthogonalEdgeStyle;rounded=1;strokeColor=#6c8ebf;fontSize=12;" edge="1" parent="1" source="KvDqcfV2zsYVxwI3j1Nx-78" target="KvDqcfV2zsYVxwI3j1Nx-90">
          <mxGeometry relative="1" as="geometry" />
        </mxCell>
        <mxCell id="KvDqcfV2zsYVxwI3j1Nx-94" value="" style="edgeStyle=orthogonalEdgeStyle;rounded=1;strokeColor=#6c8ebf;fontSize=12;" edge="1" parent="1" source="KvDqcfV2zsYVxwI3j1Nx-82" target="KvDqcfV2zsYVxwI3j1Nx-90">
          <mxGeometry x="0.0196" y="30" relative="1" as="geometry">
            <mxPoint as="offset" />
          </mxGeometry>
        </mxCell>
        <mxCell id="KvDqcfV2zsYVxwI3j1Nx-95" value="" style="edgeStyle=orthogonalEdgeStyle;rounded=1;strokeColor=#6c8ebf;fontSize=12;" edge="1" parent="1" source="KvDqcfV2zsYVxwI3j1Nx-86" target="KvDqcfV2zsYVxwI3j1Nx-90">
          <mxGeometry relative="1" as="geometry">
            <mxPoint as="offset" />
          </mxGeometry>
        </mxCell>
        <mxCell id="KvDqcfV2zsYVxwI3j1Nx-96" value="&lt;span style=&quot;text-wrap-mode: nowrap; background-color: rgb(255, 255, 255);&quot;&gt;Send Order Data&lt;/span&gt;" style="text;html=1;align=center;verticalAlign=middle;whiteSpace=wrap;rounded=0;" vertex="1" parent="1">
          <mxGeometry x="-50" y="130" width="120" height="30" as="geometry" />
        </mxCell>
        <mxCell id="KvDqcfV2zsYVxwI3j1Nx-97" value="&lt;span style=&quot;text-wrap-mode: nowrap; background-color: rgb(255, 255, 255);&quot;&gt;Send Production Updates&lt;/span&gt;" style="text;html=1;align=center;verticalAlign=middle;whiteSpace=wrap;rounded=0;" vertex="1" parent="1">
          <mxGeometry x="-20" y="330" width="60" height="30" as="geometry" />
        </mxCell>
        <mxCell id="KvDqcfV2zsYVxwI3j1Nx-98" value="&lt;span style=&quot;text-wrap-mode: nowrap; background-color: rgb(255, 255, 255);&quot;&gt;Send Delivery Data&lt;/span&gt;" style="text;html=1;align=center;verticalAlign=middle;whiteSpace=wrap;rounded=0;" vertex="1" parent="1">
          <mxGeometry x="-40" y="530" width="100" height="30" as="geometry" />
        </mxCell>
        <mxCell id="KvDqcfV2zsYVxwI3j1Nx-99" value="&lt;span style=&quot;text-wrap-mode: nowrap; background-color: rgb(255, 255, 255);&quot;&gt;Send Inventory Updates&lt;/span&gt;" style="text;html=1;align=center;verticalAlign=middle;whiteSpace=wrap;rounded=0;" vertex="1" parent="1">
          <mxGeometry x="-36" y="730" width="90" height="30" as="geometry" />
        </mxCell>
        <mxCell id="KvDqcfV2zsYVxwI3j1Nx-100" value="&lt;span style=&quot;text-wrap-mode: nowrap; background-color: rgb(255, 255, 255);&quot;&gt;Send Procurement Data&lt;/span&gt;" style="text;html=1;align=center;verticalAlign=middle;whiteSpace=wrap;rounded=0;" vertex="1" parent="1">
          <mxGeometry x="-30" y="930" width="80" height="30" as="geometry" />
        </mxCell>
        <mxCell id="KvDqcfV2zsYVxwI3j1Nx-102" value="" style="edgeStyle=orthogonalEdgeStyle;rounded=1;strokeColor=#82b366;" edge="1" parent="1">
          <mxGeometry relative="1" as="geometry">
            <mxPoint x="350" y="359.5" as="sourcePoint" />
            <mxPoint x="400" y="359.5" as="targetPoint" />
          </mxGeometry>
        </mxCell>
        <mxCell id="KvDqcfV2zsYVxwI3j1Nx-103" value="" style="edgeStyle=orthogonalEdgeStyle;rounded=1;strokeColor=#82b366;" edge="1" parent="1">
          <mxGeometry relative="1" as="geometry">
            <mxPoint x="350" y="559" as="sourcePoint" />
            <mxPoint x="400" y="559" as="targetPoint" />
          </mxGeometry>
        </mxCell>
        <mxCell id="KvDqcfV2zsYVxwI3j1Nx-104" value="" style="edgeStyle=orthogonalEdgeStyle;rounded=1;strokeColor=#82b366;" edge="1" parent="1">
          <mxGeometry relative="1" as="geometry">
            <mxPoint x="350" y="760" as="sourcePoint" />
            <mxPoint x="400" y="760" as="targetPoint" />
          </mxGeometry>
        </mxCell>
        <mxCell id="KvDqcfV2zsYVxwI3j1Nx-105" value="" style="edgeStyle=orthogonalEdgeStyle;rounded=1;strokeColor=#82b366;" edge="1" parent="1">
          <mxGeometry relative="1" as="geometry">
            <mxPoint x="350" y="960" as="sourcePoint" />
            <mxPoint x="400" y="960" as="targetPoint" />
          </mxGeometry>
        </mxCell>
      </root>
    </mxGraphModel>
  </diagram>
</mxfile>
